<svg width="20" height="23" viewBox="0 0 20 23" fill="none" xmlns="http://www.w3.org/2000/svg">
  <path d="M7.14286 1.40625V2.8125H12.8571V1.40625C12.8571 0.629736 13.4955 0 14.2857 0C15.0759 0 15.7143 0.629736 15.7143 1.40625V2.8125H17.8571C19.0402 2.8125 20 3.75688 20 4.92188V7.03125H0V4.92188C0 3.75688 0.959375 2.8125 2.14286 2.8125H4.28571V1.40625C4.28571 0.629736 4.92411 0 5.71429 0C6.50446 0 7.14286 0.629736 7.14286 1.40625ZM0 8.4375H20V20.3906C20 21.5552 19.0402 22.5 17.8571 22.5H2.14286C0.959375 22.5 0 21.5552 0 20.3906V8.4375ZM3.57143 11.25C3.17679 11.25 2.85714 11.5664 2.85714 11.9531V16.1719C2.85714 16.5586 3.17679 16.875 3.57143 16.875H7.85714C8.25 16.875 8.57143 16.5586 8.57143 16.1719V11.9531C8.57143 11.5664 8.25 11.25 7.85714 11.25H3.57143Z" fill="#1E4759"/>
</svg>
