<svg width="20" height="12" viewBox="0 0 20 12" fill="none" xmlns="http://www.w3.org/2000/svg">
    <path d="M-8.74227e-07 2.00001C-9.03806e-07 1.66166 0.123473 1.36853 0.370423 1.12061C0.617373 0.87269 0.910504 0.749215 1.24982 0.750188L18.7502 0.750186C19.0885 0.750186 19.3816 0.87366 19.6296 1.12061C19.8775 1.36756 20.001 1.66069 20 2C19.999 2.33932 19.8755 2.63245 19.6296 2.8794L10.8794 11.6296C10.6324 11.8765 10.3393 12 10 12C9.66068 12 9.36755 11.8765 9.1206 11.6296L0.370423 2.8794C0.123473 2.63245 -8.44564e-07 2.33932 -8.74227e-07 2.00001Z" fill="#1E4759"/>
</svg>
