<svg width="8" height="12" viewBox="0 0 8 12" fill="none" xmlns="http://www.w3.org/2000/svg">
<path d="M0.697371 6C0.697371 5.89585 0.739216 5.80368 0.822907 5.72348L6.6697 0.120306C6.75339 0.0401022 6.84957 -2.76284e-07 6.95824 -2.66784e-07C7.06691 -2.57283e-07 7.1631 0.0401022 7.24679 0.120306L7.87447 0.721832C7.95816 0.802036 8 0.89421 8 0.998355C8 1.1025 7.95816 1.19467 7.87447 1.27488L2.9439 6L7.87446 10.7251C7.95815 10.8053 8 10.8975 8 11.0016C8 11.1058 7.95815 11.198 7.87446 11.2782L7.24678 11.8797C7.16309 11.9599 7.06691 12 6.95824 12C6.84957 12 6.75338 11.9599 6.66969 11.8797L0.822907 6.27652C0.739216 6.19632 0.697371 6.10414 0.697371 6V6Z" fill="#1E4759"/>
</svg>
