<svg width="8" height="12" viewBox="0 0 8 12" fill="none" xmlns="http://www.w3.org/2000/svg">
<path d="M7.30263 6C7.30263 6.10415 7.26078 6.19632 7.17709 6.27652L1.33031 11.8797C1.24662 11.9599 1.15043 12 1.04176 12C0.933088 12 0.836906 11.9599 0.753215 11.8797L0.125536 11.2782C0.0418453 11.198 0 11.1058 0 11.0016C0 10.8975 0.0418453 10.8053 0.125536 10.7251L5.0561 6L0.125536 1.27488C0.0418453 1.19467 0 1.1025 0 0.998354C0 0.894209 0.0418453 0.802035 0.125536 0.721832L0.753215 0.120306C0.836906 0.040102 0.933088 0 1.04176 0C1.15043 0 1.24662 0.040102 1.33031 0.120306L7.17709 5.72348C7.26078 5.80368 7.30263 5.89586 7.30263 6Z" fill="#1E4759"/>
</svg>
