<svg width="24" height="24" viewBox="0 0 24 24" fill="none" xmlns="http://www.w3.org/2000/svg">
    <path d="M12 1C5.924 1 1 5.92381 1 11.9996C1 14.9559 2.16389 17.637 4.06179 19.6147C5.21463 20.815 6.63168 21.7512 8.21864 22.3331C8.23479 22.3382 8.24498 22.3433 8.26112 22.3493C9.42501 22.7672 10.6883 23 12 23C13.3117 23 14.5699 22.7723 15.7389 22.3493H15.744C17.2723 21.7937 18.6477 20.911 19.7793 19.7795C19.832 19.7268 19.8855 19.6682 19.9382 19.6155C21.837 17.6378 23 14.9568 23 12.0004C23.0008 5.92381 18.0768 1 12 1ZM15.5486 14.4963C15.3795 15.5013 14.7075 16.1886 13.8775 16.5428C13.6184 16.6541 13.3482 16.7331 13.0628 16.7858V17.0763C13.0628 17.6633 12.587 18.139 12 18.139C11.413 18.139 10.9372 17.6633 10.9372 17.0763V16.7433C10.4351 16.6269 9.77927 16.4052 9.36129 16.2625C9.27124 16.231 9.19223 16.2047 9.12851 16.1835C8.57291 15.9983 8.27217 15.401 8.45652 14.8455C8.64172 14.2899 9.23896 13.9891 9.79456 14.1735C9.90585 14.2049 10.0163 14.2474 10.1327 14.2848C10.6348 14.4589 11.2006 14.6501 11.5183 14.7027C12.1954 14.8089 12.7187 14.7401 13.0416 14.6025C13.3321 14.4759 13.4332 14.3222 13.4646 14.137C13.502 13.9203 13.4697 13.8252 13.4544 13.7827C13.4332 13.7402 13.3856 13.6663 13.2531 13.5712C12.9413 13.3435 12.4384 13.1745 11.7035 12.9527L11.5871 12.9154C10.9686 12.7302 10.159 12.4872 9.54564 12.0692C9.19648 11.8314 8.85326 11.5035 8.63068 11.0379C8.40894 10.5622 8.35542 10.044 8.45057 9.50454C8.61963 8.53693 9.30182 7.87006 10.0953 7.51072C10.3595 7.39433 10.6399 7.30428 10.9364 7.24142V6.9237C10.9364 6.33668 11.4121 5.86095 11.9992 5.86095H12.0042C12.5913 5.86095 13.067 6.33668 13.067 6.9237V7.25671C13.4162 7.32042 13.9446 7.42576 14.1774 7.48948C14.7432 7.64324 15.0822 8.21921 14.9284 8.78499C14.7746 9.35077 14.1986 9.68379 13.6328 9.53597C13.4315 9.4833 12.7128 9.34568 12.4851 9.3083C11.8403 9.20805 11.311 9.29216 10.9729 9.44592C10.6399 9.59968 10.5549 9.77383 10.5396 9.87408C10.5082 10.0542 10.5345 10.123 10.5447 10.1383C10.5549 10.1646 10.5974 10.2283 10.735 10.3235C11.0578 10.5401 11.565 10.699 12.316 10.9266L12.3585 10.9368C12.9982 11.1322 13.8503 11.3913 14.4951 11.8569C14.8494 12.116 15.1824 12.4651 15.3889 12.9408C15.6004 13.4217 15.6429 13.9458 15.5477 14.4955L15.5486 14.4963Z" fill="#1E4759"/>
</svg>
