<svg width="20" height="20" viewBox="0 0 20 20" fill="none" xmlns="http://www.w3.org/2000/svg">
<path d="M13.75 10C13.75 9.13281 13.7031 8.29688 13.6211 7.5H6.37891C6.29688 8.29688 6.21484 9.13281 6.21484 10C6.21484 10.8672 6.29688 11.7031 6.37891 12.5H13.6211C13.7031 11.7031 13.75 10.8672 13.75 10ZM19.6836 12.5C19.8906 11.6992 20 10.8633 20 10C20 9.13672 19.8906 8.30078 19.6836 7.5H14.875C14.957 8.30469 15 9.17578 15 10C15 10.8594 14.957 11.6953 14.875 12.5H19.6836ZM19.2734 13.75H14.7148C14.3242 16.2445 13.5508 18.3352 12.5547 19.6702C15.6172 18.8637 18.1016 16.643 19.2734 13.75ZM13.4492 13.75H6.55078C6.78906 15.1719 7.15625 16.4305 7.60547 17.4473C8.01562 18.3695 8.47266 19.0387 8.91406 19.4605C9.35156 19.8759 9.71484 20 10 20C10.2852 20 10.6484 19.8759 11.0859 19.4605C11.5273 19.0387 11.9844 18.3695 12.3945 17.4473C12.8438 16.4305 13.2109 15.1719 13.4492 13.75ZM0.726953 13.75C1.89805 16.643 4.38281 18.8637 7.44531 19.6702C6.44922 18.3352 5.67578 16.2445 5.28516 13.75H0.726953ZM5.125 12.5C5.04297 11.6953 4.96484 10.8594 4.96484 10C4.96484 9.17578 5.04297 8.30469 5.125 7.5H0.315039C0.109375 8.30078 0 9.13672 0 10C0 10.8633 0.109375 11.6992 0.315039 12.5H5.125ZM7.60547 2.55469C7.15625 3.57031 6.78906 4.82812 6.55078 6.25H13.4492C13.2109 4.82812 12.8438 3.57031 12.3945 2.55469C11.9844 1.62891 11.5273 0.960938 11.0859 0.539062C10.6484 0.125 10.2852 0 9.96484 0C9.71484 0 9.35156 0.125 8.91406 0.539062C8.47266 0.960938 8.01562 1.62891 7.60547 2.55469ZM7.44531 0.328125C4.38281 1.13672 1.89805 3.35547 0.726953 6.25H5.28516C5.67578 3.75391 6.44922 1.66406 7.44531 0.328125ZM12.5547 0.328125C13.5508 1.66406 14.3242 3.75391 14.7148 6.25H19.2734C18.1016 3.35547 15.6172 1.13672 12.5547 0.328125Z" fill="#1E4759"/>
</svg>
