<svg width="24" height="24" viewBox="0 0 24 24" fill="none" xmlns="http://www.w3.org/2000/svg">
    <path
        d="M11.5349 21.5506C9.50806 19.0363 5 12.9424 5 9.51946C5 5.36652 8.33775 2 12.4552 2C16.5711 2 19.9104 5.36652 19.9104 9.51946C19.9104 12.9424 15.3674 19.0363 13.3754 21.5506C12.8978 22.1498 12.0125 22.1498 11.5349 21.5506ZM12.4552 12.0259C13.8259 12.0259 14.9403 10.9019 14.9403 9.51946C14.9403 8.13698 13.8259 7.01297 12.4552 7.01297C11.0845 7.01297 9.97013 8.13698 9.97013 9.51946C9.97013 10.9019 11.0845 12.0259 12.4552 12.0259Z"
        fill="#1E4759" />
</svg>