<svg width="24" height="24" viewBox="0 0 24 24" fill="none" xmlns="http://www.w3.org/2000/svg">
    <g clip-path="url(#clip0_4115_8310)">
        <path d="M10.4286 12V8.85714H12.7857C13.6549 8.85714 14.3571 9.55937 14.3571 10.4286C14.3571 11.2978 13.6549 12 12.7857 12H10.4286ZM19.8571 1C21.5906 1 23 2.40692 23 4.14286V19.8571C23 21.5906 21.5906 23 19.8571 23H4.14286C2.40692 23 1 21.5906 1 19.8571V4.14286C1 2.40692 2.40692 1 4.14286 1H19.8571ZM17.5 10.4286C17.5 7.7817 15.3884 5.71429 12.7857 5.71429H9.25C8.16473 5.71429 7.28571 6.5933 7.28571 7.67857V16.7143C7.28571 17.5835 7.98795 18.2857 8.85714 18.2857C9.72634 18.2857 10.4286 17.5835 10.4286 16.7143V15.1429H12.7857C15.3884 15.1429 17.5 13.0312 17.5 10.4286Z" fill="#1E4759"/>
    </g>
    <defs>
        <clipPath id="clip0_4115_8310">
            <rect width="22" height="22" fill="white" transform="translate(1 1)"/>
        </clipPath>
    </defs>
</svg>
