<svg width="24" height="24" viewBox="3 0 22 23" fill="none" xmlns="http://www.w3.org/2000/svg">
    <path d="M20.1837 11.9917L19.6294 18.7509C19.4876 20.4998 16.8836 20.2592 17.0254 18.5404L17.4551 13.2765L15.689 13.3754C16.123 14.2648 16.368 15.2618 16.368 16.3188C16.368 18.0892 15.6762 19.7006 14.5503 20.8951L12.8616 19.2064C15.3496 16.4692 13.4245 12.0218 9.68184 12.0218C8.56891 12.0218 7.55482 12.4472 6.79425 13.139L5.10553 11.4503C6.05087 10.5608 7.25833 9.94206 8.60329 9.72291L11.8389 6.04038L10.0084 4.97473L7.79116 6.95135C6.50206 8.10294 4.75747 6.1564 6.05087 5.00051L8.97283 2.39223C9.39394 2.01409 10.0084 1.95393 10.4983 2.23754C10.4983 2.23754 16.484 5.71381 16.4926 5.72241C17.1887 6.1564 17.3821 7.26933 16.7547 7.98263L14.2453 10.8401L18.8044 10.5866C19.5993 10.5393 20.2482 11.2054 20.1837 11.9917ZM17.395 5.37435C18.6024 5.37435 19.5821 4.39463 19.5821 3.18717C19.5821 1.97972 18.6024 1 17.395 1C16.1875 1 15.2078 1.97972 15.2078 3.18717C15.2078 4.39463 16.1875 5.37435 17.395 5.37435V5.37435ZM9.68614 20.6158C6.22275 20.6158 4.21175 16.7227 6.13251 13.9082L4.4266 12.2023C3.53283 13.3324 3 14.7633 3 16.3145C3 21.9307 9.47558 24.9687 13.8027 21.5783L12.0968 19.8724C11.4092 20.3408 10.5799 20.6158 9.68614 20.6158Z" fill="#1E4759"/>
</svg>
