<?xml version="1.0" encoding="utf-8"?>
<!-- Generator: Adobe Illustrator 26.0.2, SVG Export Plug-In . SVG Version: 6.00 Build 0)  -->
<svg version="1.1" id="Layer_1" xmlns="http://www.w3.org/2000/svg" xmlns:xlink="http://www.w3.org/1999/xlink" x="0px" y="0px"
	 viewBox="0 0 378.1 462.4" style="enable-background:new 0 0 378.1 462.4;" xml:space="preserve">
<style type="text/css">
	.st0{fill:#204758;}
	.st1{fill:#0D2E3D;}
	.st2{fill:#311510;}
	.st3{fill-rule:evenodd;clip-rule:evenodd;fill:#F4B672;}
	.st4{fill-rule:evenodd;clip-rule:evenodd;fill:#E8A964;}
	.st5{fill:#FFFFFF;}
	.st6{fill:#FFB0A9;}
	.st7{fill:#FF948B;}
	.st8{display:none;fill:#FFFFFF;}
	.st9{fill:#31314E;}
	.st10{fill:#F4B672;}
	.st11{fill:#EA9F4E;}
	.st12{fill:#CCE0EF;}
	.st13{fill:#92AE71;}
	.st14{fill-rule:evenodd;clip-rule:evenodd;fill:#92AE71;}
	.st15{fill:none;stroke:#FFFFFF;stroke-width:3;stroke-linecap:round;stroke-linejoin:round;}
	.st16{fill:#F87655;}
	.st17{fill:none;stroke:#FFFFFF;stroke-width:2.5;stroke-linecap:round;stroke-linejoin:round;}
</style>
<path class="st0" d="M62.2,408.4l-5.7,57.1L252,494l-6.2-85.6H62.2z"/>
<path class="st1" d="M247.2,428.5l-1.5-20H62.2l-0.7,6.8C106,417.9,195.2,423.7,247.2,428.5z"/>
<path class="st2" d="M202.1,151.7c39.1,1.9,55-42,34.2-70.4c-6.2-9.4-10.9-19.7-13.9-30.5c8.9-4.3,11.5-17.2,4.3-25.5
	c-5.7-6.6-20.2-9.7-20.2-9.7c-97.6-22.4-80.3,29-99.6,49.6s-31.7,31-29.6,53.9c2.9,31.3,30.3,30.9,40.7,29.7
	C118.6,147.9,201.5,151,202.1,151.7z"/>
<path class="st3" d="M290.4,312.1l-21.8-109c-2.5-12.9-10.6-24.1-22.1-30.5l0,0l-40.8-18.1c-2.3-1-4.1-2.9-5.1-5.2
	c-0.9-2.3-2.7-4.1-5-5.1l-9.2-4.3l-0.1,14.9l-18.1-15.4l-31.3,10.7V134l-9.7,4c-3.5,1.5-6.3,4.3-7.7,7.9c-1.5,4-4.9,7.1-9,8.3
	l-39.4,11.7c-11.3,3.4-18.9,14.1-18.4,25.9l6.9,164.4V412h52.3v0.1h137.7l-1.1-86.2L290.4,312.1z"/>
<path class="st4" d="M226.5,312.7l5-6l-37.3-11c-8.2-2.4-16.8-3.5-25.4-3.3l-70.3,2.3l2.7-58.8l-44,62.3l2.4,58v37.9
	c9.9,0.4,19.8-0.6,29.4-3.2l91.7-24.3c5.4-1.4,9.1-6.3,9.1-11.8V345C203.6,336.2,216,325.3,226.5,312.7z"/>
<path class="st5" d="M135.2,137.6l2.6-1.6l43.5,3.3l3.2,2.3c5.3,3.8,9.1,9.6,9.6,16.1c0.5,5.7,0.2,11.5-0.8,17.1
	c-1.4,7.4-9.9,9.6-16.4,5.9l-15.9-9l-14.1,9.5c-5.3,3.6-12.6,3.2-16.2-2.1c-4.7-7.3-7-15.9-6.3-24.6
	C124.7,147.4,129.2,141.3,135.2,137.6z"/>
<path class="st6" d="M220.5,48.8c-0.8-9.6-8-17.3-17.6-17.1l-49.5,1c-9.2,0.2-16.7,7.6-16.9,16.8l-1.3,44.6l0.2,0.6v55.2
	c0,14.1,11.4,25.5,25.4,25.5c14.1,0,25.5-11.4,25.5-25.4l0,0v-12.4c11.8,2.1,22.2-0.3,27.7-8.9C221.1,117.5,222.8,77.7,220.5,48.8z"
	/>
<path class="st7" d="M156.3,122.3c1.7,10.3,8.9,27.8,29.9,29.4c0-0.6,0.1-1.2,0.1-1.8v-11.5C180.6,137.5,169.7,135,156.3,122.3z"/>
<path class="st2" d="M138.8,74.9c15.4,18,3.4-19.1,27.9-19.1c26.9,0,37.3-17.6,37.3-17.6c2.3,14.2,16.9,13.2,16.9,13.2
	c10.1-3.5,13.4-17.4,5.8-26.1c-5.7-6.6-20.2-9.7-20.2-9.7C108.9-6.8,125.1,58.9,138.8,74.9z"/>
<path class="st8" d="M217.6,98.1c-4.2,0-8.3-1.7-11.3-4.7s-4.6-7-4.5-11.2c0-1.4,0.2-2.8,0.5-4.1h-4.1c2.3,8.5-2.7,17.3-11.3,19.6
	c-1.3,0.4-2.7,0.5-4,0.5c-4.2,0-8.3-1.7-11.3-4.7s-4.6-7-4.5-11.2c0-1.6,0.2-3.2,0.7-4.8h-25v-3.2h26.4c4.4-7.6,14-10.1,21.6-5.8
	c2.6,1.5,4.7,3.7,6.1,6.4h6.7c4.1-7.7,13.8-10.6,21.5-6.5s10.6,13.8,6.5,21.5C228.8,94.9,223.4,98.2,217.6,98.1L217.6,98.1z
	 M217.6,69.5c-7,0-12.6,5.7-12.6,12.7c-0.1,6.9,5.4,12.6,12.3,12.7c0.1,0,0.1,0,0.2,0c7,0,12.7-5.7,12.7-12.7
	C230.3,75.2,224.6,69.5,217.6,69.5L217.6,69.5z M182.9,69.5c-7,0-12.6,5.7-12.6,12.7c-0.1,3.3,1.2,6.6,3.6,8.9
	c4.9,4.9,13,4.9,17.9,0s4.9-13,0-17.9C189.4,70.9,186.2,69.6,182.9,69.5L182.9,69.5z"/>
<path class="st6" d="M147.9,82.9c0,7.6-6.1,16.1-13.8,16.1s-13.8-8.4-13.8-16.1c-0.1-7.6,6-13.7,13.6-13.8c0.1,0,0.1,0,0.2,0
	C141.7,69.1,147.9,75.3,147.9,82.9z"/>
<path class="st9" d="M131.3,77.6c-1.5,1.3-2,3.8-1.5,7.2c0.1,0.6-0.3,1.2-1,1.3l0,0h-0.2c-0.6,0-1.1-0.4-1.1-1
	c-0.6-4.3,0.2-7.4,2.2-9.2c2.6-2.4,6.2-1.7,7.2-1.5c0.6,0.2,1,0.8,0.9,1.4s-0.8,1-1.4,0.9C134.6,76.1,132.7,76.5,131.3,77.6z
	 M212,80.4c-1.6,0-2.8,1.7-2.8,3.8s1.2,3.8,2.8,3.8s2.8-1.7,2.8-3.8S213.5,80.4,212,80.4z M191.4,68.4c0.2,0.2,0.5,0.4,0.9,0.4
	c0.3,0,0.6-0.1,0.8-0.3c0.5-0.4,0.5-1.2,0.1-1.6c-2.7-2.6-6.3-4-10.1-4c-3.8-0.1-7.4,1.4-10.1,4c-0.4,0.5-0.4,1.2,0.1,1.6
	s1.2,0.4,1.6-0.1c2.2-2.1,5.2-3.3,8.3-3.2C186.2,65.2,189.2,66.3,191.4,68.4L191.4,68.4z M196.4,118c0.6-0.2,0.9-0.9,0.7-1.5
	s-0.9-0.9-1.5-0.7c-8.5,3.2-13.6-5.1-13.8-5.4c-0.3-0.6-1-0.8-1.6-0.5s-0.8,1-0.5,1.6c0,0.1,0.1,0.1,0.1,0.2s4.5,7.3,12,7.3
	C193.4,118.9,195,118.6,196.4,118L196.4,118z M221.3,62.6c-1.8-0.8-3.8-1.2-5.8-1.1c-3.8-0.1-7.4,1.4-10.1,4
	c-0.4,0.5-0.4,1.2,0.1,1.6s1.2,0.4,1.6-0.1c2.2-2.1,5.2-3.3,8.3-3.2c2,0,4,0.5,5.8,1.4C221.3,64.3,221.3,63.5,221.3,62.6L221.3,62.6
	z M199.6,92v8.4h-5c-0.6,0-1.2,0.5-1.2,1.2s0.5,1.2,1.2,1.2l0,0h6.2c0.6,0,1.2-0.5,1.2-1.2V92c0-0.6-0.5-1.2-1.2-1.2
	C200.2,90.8,199.7,91.4,199.6,92L199.6,92z M181.9,84.2c0,2.1,1.3,3.8,2.8,3.8s2.8-1.7,2.8-3.8s-1.3-3.8-2.8-3.8
	S181.9,82.1,181.9,84.2z"/>
<ellipse transform="matrix(0.9743 -0.2253 0.2253 0.9743 -69.5308 47.5114)" class="st2" cx="173.4" cy="328.4" rx="8.2" ry="31.2"/>
<path class="st6" d="M201.1,275.2l-32,22.1l-19.1,4.9l1.9,42.6l28.8-5.5c11.3-2.2,21.6-8.1,29.2-16.7c5.4-0.6,12.7-0.2,16.2-2.7
	s2.6-6.8,1.7-8.6c2.9-3.7,1.3-8.5,0.2-10.5c1.7-3.2,1.1-7.2-1.4-9.8c2.3-3.2-0.1-7.5-1.6-9.2l18.7-3.9c2.2-0.5,3.7-2.6,3.2-4.9
	c-0.4-2.1-2.3-3.5-4.4-3.3l-34.3,3.1C205.7,272.9,203.2,273.7,201.1,275.2z"/>
<path class="st7" d="M166,298.1l-5.6,1.4l-4.4,3.9l2.6,25.2l4,14.2l17.3-3.3C171.6,328.5,166.5,309.3,166,298.1z"/>
<path class="st10" d="M6.7,323.7l44.4-138.6c3.8-11.9,17.3-17.9,25.9-8.8c21.2,22.8,25.2,60.4,25.1,60.4l-23.3,70.7l88.1-9.9
	c-1.3,1.2-5,7.8-3.8,20.2c2,19.9,11.5,40.9,17.4,40.9L57.2,381.2C33,385.6,9.7,369.6,5.3,345.4C4,338.1,4.5,330.7,6.7,323.7z"/>
<path class="st11" d="M164.6,175.1v54c-0.1,1.8-1.5,3.2-3.3,3.3c-1.8,0-3.3-1.5-3.3-3.3v-53.9l0.9,0.1
	C160.8,175.4,162.7,175.4,164.6,175.1z M163.1,317.7c-1.2-12.4,2.5-19,3.8-20.2l-13.9,1.6c-6.8,10.2-5.4,46.7,7.9,63.1l19.6-3.6
	C174.6,358.6,165.1,337.6,163.1,317.7z M38.6,224c10.2,9,42,21.8,60.2,22.7l-4.9,14.9c-19.4-2.2-45.8-12.7-60.2-22.3L38.6,224z
	 M26.5,261.9l4.9-15.4c9.9,9,41.5,21.8,59.9,22.9l-4.9,14.9C67,281.9,40.7,271.5,26.5,261.9z M247.7,232.1c8.6-1.6,17.1-3.9,25.3-7
	l3,15.2c-9.1,3.2-18.5,5.7-28.1,7.3L247.7,232.1z"/>
<path class="st12" d="M223.7,252.5h52.2l-27.3,121.3h-58.7C206.6,349,220.5,279.7,223.7,252.5z"/>
<path class="st6" d="M332.9,299.4c-2-6.7-11.1-10.6-15.4-11.7l-4.5,17.7L332.9,299.4z"/>
<path class="st0" d="M324.9,247.7h-91.3c-2.9,0-5.4,2-6,4.8l-27.9,129.2c-0.7,3.3,1.4,6.6,4.7,7.3c0.4,0.1,0.8,0.1,1.3,0.1h91.1
	c2.9,0,5.4-2,6-4.8l28.1-129.1c0.7-3.3-1.4-6.6-4.7-7.4C325.8,247.8,325.3,247.7,324.9,247.7z"/>
<path class="st13" d="M295.2,241.1h-6.9c-0.2-3.4-3.1-5.9-6.4-5.7c-3.1,0.2-5.6,2.6-5.7,5.7h-9.4c-3.9,0-7,3.1-7,7s3.1,7,7,7h28.5
	c3.2,0,6-2.2,6.8-5.3c0.9-3.8-1.3-7.6-5.1-8.5C296.4,241.2,295.8,241.1,295.2,241.1z"/>
<path class="st6" d="M309.7,300.5l17.5-4.1c8.8,0.1,6.8,9.6-0.7,11.5c5.3,4.6-1.4,10.3-4.8,11.6c5.9,4.6,1.2,9.4-1.9,11.2
	c3.2,1.8,2.5,7.1-2.6,8.8c-3.1,1.1-6.3,1.7-9.6,2c-1.9,0.1-3.5-1.3-3.7-3.2c0-0.1,0-0.2,0-0.2c-0.1-1.6,0.7-3.1,2.1-3.8l5.1-2.7
	l-4.2,0.3c-2.2,0.2-4.2-1.5-4.4-3.7c0-0.1,0-0.1,0-0.2c-0.1-1.6,0.7-3.1,2.1-3.8l7.8-4.4l-5.4,0.7c-1.9,0.3-3.6-1-3.9-2.9
	c-0.2-1.5,0.6-3,2-3.7l12-5.3h-6.5c-2.3,0-4.2-1.8-4.3-4.2c0-0.3,0-0.6,0.1-0.8C306.9,302.1,308.2,300.9,309.7,300.5z"/>
<path class="st14" d="M10.6,0.6C4.7,0.6,0,5.3,0,11.2v42.3c0,5.9,4.7,10.6,10.6,10.6h44.9L66.4,75c0.7,0.7,1.8,0.7,2.5,0
	c0.3-0.3,0.5-0.7,0.5-1.2v-9.7H74c5.9,0,10.6-4.7,10.6-10.6V11.2c0-5.9-4.7-10.6-10.6-10.6C74,0.6,10.6,0.6,10.6,0.6z"/>
<circle class="st5" cx="24.7" cy="33.2" r="5.3"/>
<circle class="st5" cx="42.3" cy="33.2" r="5.3"/>
<circle class="st5" cx="59.9" cy="33.2" r="5.3"/>
<ellipse class="st11" cx="312.7" cy="152.8" rx="29" ry="29"/>
<path class="st15" d="M302.7,152l7.2,7.2l12.8-12.8"/>
<path class="st16" d="M312.2,0h55.2c5.9,0,10.7,4.8,10.7,10.7v38.1c0,5.9-4.8,10.7-10.7,10.7h-55.2c-5.9,0-10.7-4.8-10.7-10.7V10.7
	C301.5,4.8,306.3,0,312.2,0z"/>
<path class="st17" d="M341.1,17.5l-1.4,1.4l-0.9-0.9c-3.3-3.2-8.8-4.2-12.6-1.4c-4.6,3.2-5.1,10.2-0.9,13.8l1.4,1.4l13,12.9l13-12.9
	l1.4-1.4c3.6-3.4,3.7-9,0.3-12.6c-0.1-0.1-0.2-0.2-0.3-0.3c-3.4-3.6-9.1-3.7-12.7-0.3C341.3,17.3,341.2,17.4,341.1,17.5z"/>
<path class="st17" d="M318.1,30.3h13.5l4.3-5.6l4.5,10.1l4-7.2h17.1"/>
</svg>
